<mxfile host="65bd71144e">
    <diagram id="23iRSUPoRavnBvh4doch" name="Page-1">
        <mxGraphModel dx="830" dy="617" grid="1" gridSize="10" guides="1" tooltips="1" connect="1" arrows="1" fold="1" page="1" pageScale="1" pageWidth="827" pageHeight="1169" math="0" shadow="0">
            <root>
                <mxCell id="0"/>
                <mxCell id="1" parent="0"/>
                <mxCell id="4" style="edgeStyle=orthogonalEdgeStyle;rounded=0;orthogonalLoop=1;jettySize=auto;html=1;" parent="1" target="3" edge="1">
                    <mxGeometry relative="1" as="geometry">
                        <mxPoint x="320" y="50" as="sourcePoint"/>
                    </mxGeometry>
                </mxCell>
                <mxCell id="54" value="" style="edgeStyle=none;html=1;entryX=0.5;entryY=0;entryDx=0;entryDy=0;" parent="1" source="3" target="47" edge="1">
                    <mxGeometry relative="1" as="geometry"/>
                </mxCell>
                <mxCell id="3" value="Enregistrer nouveau document" style="fontStyle=1;" parent="1" vertex="1">
                    <mxGeometry x="217.5" y="90" width="205" height="30" as="geometry"/>
                </mxCell>
                <mxCell id="46" value="Prêter document" style="rounded=0;whiteSpace=wrap;html=1;" parent="1" vertex="1">
                    <mxGeometry x="265" y="150" width="120" height="40" as="geometry"/>
                </mxCell>
                <mxCell id="55" value="" style="edgeStyle=none;html=1;" parent="1" source="47" target="48" edge="1">
                    <mxGeometry relative="1" as="geometry"/>
                </mxCell>
                <mxCell id="47" value="Création d'une fiche de prêt" style="rounded=0;whiteSpace=wrap;html=1;" parent="1" vertex="1">
                    <mxGeometry x="250" y="220" width="150" height="50" as="geometry"/>
                </mxCell>
                <mxCell id="53" value="" style="edgeStyle=none;html=1;" parent="1" source="48" target="49" edge="1">
                    <mxGeometry relative="1" as="geometry"/>
                </mxCell>
                <mxCell id="48" value="Retour document" style="rounded=0;whiteSpace=wrap;html=1;" parent="1" vertex="1">
                    <mxGeometry x="260" y="300" width="120" height="60" as="geometry"/>
                </mxCell>
                <mxCell id="51" value="" style="edgeStyle=none;html=1;" parent="1" source="49" target="50" edge="1">
                    <mxGeometry relative="1" as="geometry"/>
                </mxCell>
                <mxCell id="59" value="" style="edgeStyle=none;html=1;" parent="1" source="49" target="58" edge="1">
                    <mxGeometry relative="1" as="geometry"/>
                </mxCell>
                <mxCell id="49" value="" style="rhombus;whiteSpace=wrap;html=1;" parent="1" vertex="1">
                    <mxGeometry x="280" y="420" width="80" height="70" as="geometry"/>
                </mxCell>
                <mxCell id="50" value="Valider retour document" style="rounded=0;whiteSpace=wrap;html=1;" parent="1" vertex="1">
                    <mxGeometry x="260" y="525" width="120" height="40" as="geometry"/>
                </mxCell>
                <mxCell id="56" value="&lt;h1&gt;OK&lt;/h1&gt;" style="text;html=1;strokeColor=none;fillColor=none;spacing=5;spacingTop=-20;whiteSpace=wrap;overflow=hidden;rounded=0;" parent="1" vertex="1">
                    <mxGeometry x="260" y="477.5" width="55" height="50" as="geometry"/>
                </mxCell>
                <mxCell id="57" value="&lt;h1&gt;NOK&lt;/h1&gt;" style="text;html=1;strokeColor=none;fillColor=none;spacing=5;spacingTop=-20;whiteSpace=wrap;overflow=hidden;rounded=0;" parent="1" vertex="1">
                    <mxGeometry x="352.5" y="410" width="70" height="40" as="geometry"/>
                </mxCell>
                <mxCell id="61" value="" style="edgeStyle=none;html=1;" parent="1" source="58" target="60" edge="1">
                    <mxGeometry relative="1" as="geometry"/>
                </mxCell>
                <mxCell id="58" value="Document volé ou perdu" style="rounded=0;whiteSpace=wrap;html=1;" parent="1" vertex="1">
                    <mxGeometry x="450" y="432.5" width="120" height="45" as="geometry"/>
                </mxCell>
                <mxCell id="60" value="Mise hors service du document" style="rounded=0;whiteSpace=wrap;html=1;" parent="1" vertex="1">
                    <mxGeometry x="450" y="515" width="120" height="60" as="geometry"/>
                </mxCell>
                <mxCell id="64" value="" style="endArrow=none;html=1;fillColor=#a20025;strokeColor=#6F0000;fontStyle=1;strokeWidth=6;" parent="1" edge="1">
                    <mxGeometry width="50" height="50" relative="1" as="geometry">
                        <mxPoint x="170" y="600" as="sourcePoint"/>
                        <mxPoint x="690" y="600" as="targetPoint"/>
                    </mxGeometry>
                </mxCell>
                <mxCell id="66" value="" style="endArrow=classic;html=1;strokeWidth=1;" parent="1" edge="1">
                    <mxGeometry width="50" height="50" relative="1" as="geometry">
                        <mxPoint x="413" y="600" as="sourcePoint"/>
                        <mxPoint x="413" y="680" as="targetPoint"/>
                    </mxGeometry>
                </mxCell>
                <mxCell id="67" value="" style="ellipse;whiteSpace=wrap;html=1;aspect=fixed;fontColor=#ffffff;fillColor=none;strokeColor=#000000;" parent="1" vertex="1">
                    <mxGeometry x="394" y="680" width="40" height="40" as="geometry"/>
                </mxCell>
                <mxCell id="68" value="" style="ellipse;whiteSpace=wrap;html=1;aspect=fixed;gradientColor=none;fillColor=#000000;" parent="1" vertex="1">
                    <mxGeometry x="399" y="684" width="30" height="30" as="geometry"/>
                </mxCell>
                <mxCell id="72" value="" style="ellipse;whiteSpace=wrap;html=1;aspect=fixed;fontColor=#ffffff;fillColor=none;strokeColor=#000000;" parent="1" vertex="1">
                    <mxGeometry x="300" y="10" width="40" height="40" as="geometry"/>
                </mxCell>
                <mxCell id="73" value="" style="ellipse;whiteSpace=wrap;html=1;aspect=fixed;gradientColor=none;fillColor=#000000;" parent="1" vertex="1">
                    <mxGeometry x="305" y="15" width="30" height="30" as="geometry"/>
                </mxCell>
            </root>
        </mxGraphModel>
    </diagram>
</mxfile>